# xmcd CD database file
#
# Track frame offsets:
#	150
#	19478
#	40915
#	48048
#
# Disc length: 899 seconds
#
# Revision: 0
# Processed by: cddbd v1.5.1PL0 Copyright (c) Steve Scherf et al.
# Submitted via: CDex 1.50
#
DISCID=2a038104
DTITLE=いのり - ファンタジック　チルドレン
DYEAR=2004
DGENRE=Anime
TTITLE0=Ｖｏｙａｇｅ
TTITLE1=Ｖｏｙａｇｅ･･･めぐる時の中で
TTITLE2=Ｖｏｙａｇｅ（ＴＶ　Ｖｅｒｓｉｏｎ）
TTITLE3=Ｖｏｙａｇｅ（Ｉｎｓｔｒｕｍｅｎｔａｌ）
EXTD=YEAR: 2004
EXTT0=
EXTT1=
EXTT2=
EXTT3=
PLAYORDER=
